<svg width="522" height="572" viewBox="0 0 522 572" fill="none" xmlns="http://www.w3.org/2000/svg">
<path fill-rule="evenodd" clip-rule="evenodd" d="M497.352 257.029L498.851 259.665L500.319 262.334L501.755 265.037L503.155 267.772L504.519 270.54L505.845 273.339L507.131 276.169L508.375 279.029L509.575 281.918L510.729 284.836L511.836 287.781L512.893 290.752L513.899 293.749L514.852 296.77L515.751 299.814L516.593 302.879L517.378 305.965L518.103 309.07L518.768 312.192L519.37 315.33L519.909 318.482L520.383 321.648L520.792 324.824L521.133 328.011L521.407 331.205L521.613 334.405L521.748 337.61L521.814 340.818L521.809 344.027L521.733 347.236L521.585 350.442L521.366 353.644L521.074 356.84L520.711 360.028L520.275 363.208L519.767 366.376L519.187 369.532L518.536 372.673L517.813 375.799L517.019 378.907L516.155 381.996L515.22 385.064L514.216 388.11L513.144 391.133L512.003 394.13L510.795 397.101L509.521 400.044L508.181 402.958L506.776 405.841L505.307 408.692L503.775 411.51L502.181 414.293L500.527 417.04L498.812 419.751L497.04 422.424L495.21 425.059L493.324 427.654L491.385 430.208L489.392 432.722L487.349 435.194L485.256 437.625L483.115 440.012L480.928 442.358L478.697 444.66L476.423 446.919L474.109 449.135L471.755 451.308L469.364 453.438L466.938 455.525L464.478 457.57L461.986 459.573L459.464 461.535L456.914 463.455L454.337 465.335L451.735 467.176L449.11 468.977L446.464 470.741L443.797 472.467L441.112 474.157L438.41 475.811L435.692 477.432L432.96 479.019L430.215 480.573L427.458 482.097L424.691 483.591L421.915 485.057L419.13 486.495L416.337 487.906L413.539 489.293L410.734 490.656L407.925 491.996L405.111 493.315L402.294 494.614L399.473 495.894L396.65 497.157L393.825 498.403L390.999 499.635L388.171 500.853L385.342 502.058L382.512 503.253L379.681 504.439L376.85 505.617L374.019 506.788L371.186 507.953L368.353 509.114L365.52 510.272L362.684 511.428L359.848 512.583L357.009 513.739L354.168 514.896L351.324 516.054L348.476 517.216L345.625 518.382L342.768 519.552L339.906 520.727L337.038 521.907L334.163 523.093L331.279 524.285L328.387 525.484L325.484 526.688L322.571 527.9L319.647 529.117L316.709 530.341L313.758 531.57L310.793 532.804L307.811 534.044L304.813 535.287L301.798 536.534L298.764 537.783L295.711 539.033L292.637 540.285L289.542 541.535L286.426 542.784L283.286 544.029L280.124 545.27L276.937 546.505L273.725 547.733L270.488 548.952L267.225 550.159L263.936 551.355L260.621 552.536L257.278 553.701L253.908 554.848L250.511 555.976L247.086 557.082L243.633 558.164L240.153 559.221L236.646 560.25L233.111 561.249L229.55 562.216L225.962 563.149L222.348 564.046L218.709 564.904L215.044 565.721L211.356 566.494L207.645 567.222L203.911 567.902L200.156 568.532L196.381 569.109L192.587 569.632L188.775 570.098L184.947 570.505L181.105 570.851L177.249 571.134L173.382 571.352L169.504 571.502L165.619 571.584L161.728 571.594L157.832 571.533L153.934 571.397L150.036 571.186L146.139 570.898L142.247 570.531L138.36 570.085L134.482 569.559L130.614 568.951L126.76 568.261L122.92 567.487L119.097 566.63L115.294 565.689L111.512 564.663L107.755 563.552L104.024 562.357L100.321 561.076L96.6496 559.711L93.0107 558.262L89.4067 556.729L85.8398 555.112L82.312 553.413L78.8255 551.631L75.3822 549.768L71.984 547.824L68.6328 545.801L65.3305 543.699L62.0788 541.521L58.8793 539.266L55.7337 536.936L52.6435 534.534L49.6103 532.06L46.6352 529.516L43.7197 526.904L40.8649 524.225L38.0719 521.482L35.3416 518.677L32.6751 515.81L30.073 512.885L27.5362 509.904L25.0651 506.869L22.6603 503.781L20.3222 500.643L18.0512 497.457L15.8473 494.226L13.7108 490.952L11.6416 487.636L9.63977 484.282L7.70509 480.891L5.83734 477.466L4.03624 474.009L2.3014 470.522L0.632397 467.007L-0.97127 463.466L-2.51015 459.902L-3.98485 456.316L-5.39601 452.71L-6.7443 449.087L-8.03044 445.448L-9.25514 441.795L-10.4192 438.129L-11.5232 434.453L-12.5681 430.768L-13.5546 427.075L-14.4833 423.377L-15.3549 419.673L-16.1702 415.967L-16.9298 412.258L-17.6342 408.548L-18.2839 404.839L-18.8796 401.131L-19.4215 397.425L-19.9103 393.722L-20.3464 390.024L-20.7304 386.331L-21.0627 382.643L-21.3439 378.963L-21.5744 375.291L-21.7548 371.628L-21.8855 367.974L-21.9671 364.33L-22 360.698L-21.9848 357.077L-21.9219 353.469L-21.8118 349.874L-21.6551 346.293L-21.4522 342.727L-21.2036 339.176L-20.9098 335.641L-20.5714 332.123L-20.1888 328.622L-19.7625 325.139L-19.2932 321.674L-18.7812 318.228L-18.2271 314.802L-17.6315 311.396L-16.9949 308.01L-16.318 304.646L-15.6012 301.303L-14.8452 297.983L-14.0507 294.685L-13.2181 291.41L-12.3483 288.159L-11.4418 284.931L-10.4993 281.728L-9.5216 278.55L-8.50938 275.398L-7.4634 272.27L-6.38445 269.169L-5.2733 266.094L-4.1308 263.045L-2.9578 260.023L-1.75526 257.029L-0.52421 254.061L0.734228 251.122L2.01886 248.209L3.32844 245.325L4.66163 242.468L6.01705 239.639L7.39327 236.838L8.78882 234.065L10.2022 231.319L11.6318 228.601L13.076 225.91L14.5334 223.245L16.0022 220.607L17.4808 217.994L18.9677 215.407L20.4612 212.845L21.9598 210.306L23.4619 207.791L24.9659 205.299L26.4703 202.829L27.9737 200.379L29.4747 197.95L30.9718 195.539L32.4639 193.146L33.9496 190.771L35.4279 188.411L36.8975 186.066L38.3576 183.734L39.8071 181.414L41.2453 179.106L42.6714 176.807L44.0848 174.517L45.4849 172.234L46.8712 169.958L48.2435 167.686L49.6014 165.418L50.9449 163.152L52.2739 160.887L53.5885 158.622L54.8888 156.357L56.1752 154.089L57.4481 151.818L58.708 149.542L59.9554 147.262L61.191 144.975L62.4157 142.682L63.6303 140.381L64.8359 138.072L66.0334 135.754L67.2241 133.426L68.4091 131.089L69.5897 128.742L70.7674 126.384L71.9434 124.016L73.1193 121.637L74.2966 119.247L75.4768 116.847L76.6615 114.437L77.8524 112.017L79.0511 109.588L80.2593 107.149L81.4786 104.702L82.7107 102.247L83.9574 99.7858L85.2202 97.3182L86.5009 94.8456L87.8012 92.369L89.1226 89.8897L90.4668 87.4088L91.8353 84.9276L93.2296 82.4477L94.6513 79.9705L96.1018 77.4975L97.5825 75.0304L99.0947 72.5708L100.64 70.1205L102.218 67.6813L103.832 65.2551L105.482 62.8437L107.169 60.4491L108.894 58.0732L110.658 55.718L112.461 53.3855L114.304 51.0778L116.188 48.7969L118.113 46.5448L120.079 44.3237L122.087 42.1354L124.136 39.982L126.227 37.8655L128.36 35.7879L130.534 33.7512L132.75 31.7572L135.007 29.8079L137.304 27.9052L139.642 26.0512L142.02 24.2476L144.436 22.4964L146.891 20.7994L149.384 19.1584L151.914 17.5752L154.479 16.0514L157.08 14.5888L159.714 13.189L162.381 11.8534L165.08 10.5834L167.809 9.38054L170.567 8.24599L173.352 7.18095L176.163 6.18653L178.998 5.26373L181.857 4.41345L184.736 3.63649L187.635 2.93355L190.552 2.30521L193.484 1.75197L196.431 1.2742L199.391 0.872175L202.36 0.546045L205.339 0.295868L208.324 0.121591L211.314 0.0230557L214.308 0L217.302 0.052062L220.296 0.178782L223.287 0.379604L226.274 0.653882L229.255 1.00088L232.228 1.41979L235.191 1.90971L238.143 2.46967L241.082 3.09863L244.007 3.79551L246.914 4.55913L249.805 5.3883L252.675 6.28176L255.525 7.23822L258.353 8.25636L261.157 9.33483L263.936 10.4723L266.689 11.6673L269.415 12.9185L272.112 14.2246L274.78 15.5841L277.416 16.9955L280.021 18.4576L282.593 19.9685L285.132 21.5269L287.636 23.1309L290.105 24.7789L292.537 26.4691L294.933 28.1996L297.292 29.9686L299.613 31.7743L301.896 33.6145L304.14 35.4874L306.346 37.391L308.512 39.3232L310.639 41.282L312.727 43.2653L314.775 45.2711L316.784 47.2972L318.754 49.3416L320.686 51.4022L322.579 53.4769L324.434 55.5637L326.251 57.6605L328.031 59.7653L329.775 61.8761L331.483 63.991L333.156 66.1079L334.796 68.225L336.402 70.3404L337.975 72.4524L339.518 74.5591L341.03 76.6589L342.514 78.75L343.969 80.831L345.398 82.9003L346.802 84.9563L348.182 86.9978L349.539 89.0235L350.876 91.032L352.192 93.0223L353.49 94.9932L354.772 96.9438L356.038 98.8732L357.29 100.781L358.53 102.665L359.76 104.527L360.979 106.365L362.191 108.179L363.396 109.969L364.596 111.735L365.793 113.476L366.986 115.193L368.179 116.885L369.371 118.554L370.565 120.199L371.761 121.821L372.961 123.42L374.165 124.996L375.374 126.552L376.59 128.086L377.814 129.6L379.045 131.095L380.285 132.571L381.535 134.03L382.795 135.472L384.066 136.899L385.349 138.311L386.643 139.709L387.95 141.095L389.269 142.47L390.601 143.834L391.946 145.19L393.305 146.538L394.677 147.879L396.063 149.214L397.463 150.545L398.876 151.873L400.303 153.199L401.744 154.524L403.199 155.849L404.667 157.175L406.148 158.504L407.643 159.836L409.151 161.173L410.672 162.516L412.206 163.865L413.753 165.221L415.312 166.586L416.884 167.96L418.468 169.345L420.064 170.74L421.672 172.147L423.293 173.568L424.925 175.001L426.569 176.449L428.226 177.911L429.893 179.39L431.573 180.885L433.263 182.397L434.964 183.928L436.676 185.477L438.399 187.047L440.131 188.637L441.872 190.248L443.622 191.882L445.381 193.539L447.147 195.219L448.92 196.924L450.7 198.654L452.485 200.41L454.275 202.193L456.069 204.004L457.866 205.842L459.665 207.71L461.465 209.606L463.265 211.533L465.064 213.491L466.861 215.48L468.655 217.5L470.444 219.553L472.228 221.639L474.004 223.757L475.772 225.909L477.531 228.095L479.278 230.316L481.013 232.57L482.734 234.859L484.44 237.183L486.129 239.542L487.799 241.936L489.45 244.364L491.079 246.828L492.686 249.326L494.268 251.859L495.824 254.427L497.352 257.029Z" fill="#C0A89C"/>
</svg>
