<svg width="360" height="545" viewBox="0 0 360 545" fill="none" xmlns="http://www.w3.org/2000/svg">
<path fill-rule="evenodd" clip-rule="evenodd" d="M358.957 376.736L359.152 380.878L359.186 385L359.06 389.098L358.772 393.165L358.325 397.195L357.718 401.184L356.955 405.127L356.036 409.019L354.965 412.857L353.746 416.636L352.384 420.353L350.884 424.007L349.251 427.595L347.492 431.117L345.613 434.571L343.622 437.959L341.525 441.281L339.331 444.537L337.045 447.73L334.675 450.861L332.228 453.933L329.711 456.948L327.131 459.91L324.493 462.822L321.803 465.687L319.067 468.507L316.288 471.287L313.472 474.029L310.62 476.735L307.738 479.408L304.825 482.051L301.884 484.662L298.916 487.245L295.921 489.799L292.899 492.323L289.85 494.818L286.774 497.283L283.671 499.717L280.539 502.119L277.379 504.488L274.19 506.821L270.97 509.117L267.719 511.373L264.436 513.586L261.119 515.754L257.769 517.874L254.384 519.941L250.964 521.953L247.507 523.905L244.014 525.793L240.484 527.614L236.918 529.363L233.314 531.035L229.674 532.627L225.999 534.135L222.288 535.554L218.543 536.879L214.766 538.107L210.957 539.235L207.119 540.257L203.253 541.171L199.362 541.974L195.449 542.662L191.515 543.233L187.564 543.685L183.599 544.015L179.623 544.221L175.64 544.304L171.652 544.261L167.664 544.092L163.679 543.797L159.701 543.377L155.733 542.832L151.78 542.164L147.845 541.373L143.932 540.463L140.044 539.435L136.185 538.293L132.358 537.039L128.567 535.676L124.814 534.209L121.103 532.642L117.436 530.979L113.816 529.225L110.245 527.384L106.724 525.462L103.257 523.466L99.844 521.402L96.486 519.279L93.1838 517.103L89.9376 514.884L86.7471 512.629L83.6116 510.348L80.5299 508.048L77.5006 505.739L74.5214 503.429L71.5901 501.127L68.7037 498.84L65.8591 496.577L63.0525 494.345L60.2802 492.151L57.5378 490.002L54.8209 487.905L52.1247 485.866L49.4442 483.889L46.7741 481.98L44.1092 480.143L41.4439 478.382L38.7725 476.701L36.0893 475.103L33.3885 473.59L30.6647 472.163L27.9125 470.823L25.1267 469.569L22.3025 468.4L19.4353 467.314L16.5212 466.308L13.5563 465.378L10.5375 464.521L7.46211 463.73L4.3279 463.001L1.13328 462.327L-2.12276 461.701L-5.44066 461.116L-8.82022 460.565L-12.2606 460.039L-15.7605 459.531L-19.3177 459.032L-22.9296 458.533L-26.5929 458.025L-30.3039 457.501L-34.0582 456.951L-37.8508 456.367L-41.6762 455.74L-45.5288 455.063L-49.4021 454.328L-53.2895 453.527L-57.184 452.653L-61.0784 451.7L-64.965 450.661L-68.8362 449.53L-72.6841 448.303L-76.5009 446.975L-80.2785 445.542L-84.0091 444.001L-87.6848 442.348L-91.298 440.582L-94.8411 438.701L-98.3068 436.704L-101.688 434.591L-104.978 432.362L-108.171 430.017L-111.261 427.56L-114.242 424.991L-117.109 422.312L-119.858 419.528L-122.485 416.64L-124.987 413.654L-127.36 410.573L-129.602 407.402L-131.711 404.146L-133.687 400.808L-135.527 397.396L-137.23 393.912L-138.795 390.362L-140.221 386.751L-141.506 383.084L-142.65 379.364L-143.652 375.598L-144.511 371.79L-145.226 367.944L-145.798 364.065L-146.226 360.159L-146.511 356.229L-146.652 352.282L-146.651 348.321L-146.508 344.351L-146.224 340.377L-145.8 336.404L-145.238 332.437L-144.539 328.479L-143.706 324.536L-142.739 320.611L-141.64 316.709L-140.413 312.835L-139.058 308.991L-137.579 305.183L-135.978 301.414L-134.258 297.688L-132.424 294.009L-130.479 290.38L-128.427 286.805L-126.274 283.287L-124.024 279.829L-121.685 276.434L-119.26 273.105L-116.758 269.843L-114.184 266.65L-111.545 263.529L-108.849 260.481L-106.102 257.507L-103.312 254.607L-100.487 251.781L-97.6349 249.03L-94.7627 246.353L-91.8785 243.75L-88.99 241.218L-86.1049 238.757L-83.2307 236.365L-80.375 234.039L-77.5449 231.777L-74.7475 229.575L-71.9896 227.431L-69.2777 225.341L-66.6179 223.3L-64.016 221.306L-61.4774 219.354L-59.0071 217.438L-56.6097 215.555L-54.2892 213.7L-52.0491 211.867L-49.8927 210.052L-47.8223 208.25L-45.84 206.456L-43.9474 204.664L-42.1451 202.87L-40.4337 201.068L-38.8129 199.255L-37.282 197.425L-35.8396 195.575L-34.4839 193.699L-33.2125 191.795L-32.0227 189.858L-30.911 187.886L-29.8736 185.875L-28.9063 183.824L-28.0044 181.729L-27.1631 179.59L-26.3773 177.404L-25.6423 175.17L-24.9534 172.887L-24.3062 170.553L-23.6962 168.168L-23.1191 165.731L-22.5704 163.24L-22.0459 160.696L-21.5411 158.097L-21.0516 155.444L-20.5731 152.737L-20.1012 149.976L-19.6313 147.161L-19.159 144.293L-18.6798 141.374L-18.1893 138.405L-17.6829 135.386L-17.1564 132.321L-16.6053 129.21L-16.0254 126.057L-15.4125 122.863L-14.7627 119.631L-14.0721 116.364L-13.3371 113.065L-12.5542 109.736L-11.72 106.38L-10.8314 103.001L-9.88491 99.6031L-8.87759 96.1891L-7.8064 92.7635L-6.66846 89.3304L-5.46104 85.8943L-4.18159 82.4599L-2.82773 79.032L-1.39729 75.6155L0.1117 72.2157L1.70099 68.8376L3.37208 65.4867L5.12623 62.1682L6.96445 58.8877L8.88748 55.6505L10.8958 52.4622L12.9896 49.3281L15.1688 46.2537L17.4331 43.2442L19.7818 40.3049L22.2141 37.441L24.7287 34.6573L27.3243 31.9587L29.9991 29.3499L32.7511 26.8354L35.5783 24.4193L38.4781 22.1057L41.448 19.8985L44.4851 17.801L47.5864 15.8166L50.7485 13.9482L53.9683 12.1986L57.2421 10.57L60.5663 9.06471L63.9371 7.68436L67.3507 6.43044L70.8031 5.30411L74.2904 4.3062L77.8084 3.43724L81.353 2.69743L84.9203 2.08667L88.5062 1.60456L92.1065 1.2504L95.7173 1.02319L99.3346 0.921654L102.955 0.944248L106.573 1.08915L110.187 1.35431L113.793 1.7374L117.386 2.23589L120.965 2.84709L124.524 3.56837L128.063 4.39711L131.577 5.33074L135.063 6.36669L138.52 7.5024L141.943 8.73525L145.332 10.0626L148.683 11.4818L151.995 12.9899L155.264 14.5843L158.49 16.262L161.67 18.02L164.803 19.8552L167.887 21.7645L170.92 23.7445L173.902 25.7921L176.831 27.9038L179.706 30.0761L182.527 32.3057L185.292 34.589L188.002 36.9224L190.656 39.3024L193.254 41.7256L195.796 44.1883L198.282 46.6873L200.712 49.2192L203.087 51.7808L205.406 54.3691L207.671 56.9812L209.883 59.6142L212.041 62.2657L214.146 64.9331L216.2 67.6141L218.203 70.3068L220.155 73.0091L222.058 75.7192L223.912 78.4356L225.718 81.1568L227.476 83.8814L229.188 86.6084L230.854 89.3368L232.475 92.0655L234.051 94.794L235.582 97.5215L237.07 100.247L238.514 102.971L239.915 105.693L241.273 108.412L242.588 111.128L243.862 113.841L245.093 116.55L246.282 119.256L247.429 121.958L248.534 124.656L249.598 127.349L250.621 130.039L251.602 132.723L252.541 135.403L253.44 138.077L254.298 140.746L255.116 143.408L255.894 146.064L256.632 148.712L257.331 151.353L257.992 153.985L258.616 156.608L259.203 159.221L259.754 161.823L260.271 164.414L260.754 166.993L261.206 169.558L261.627 172.109L262.02 174.645L262.386 177.166L262.727 179.67L263.045 182.157L263.343 184.626L263.623 187.075L263.888 189.504L264.144 191.912L264.394 194.298L264.643 196.66L264.896 198.997L265.158 201.31L265.434 203.596L265.731 205.857L266.054 208.092L266.409 210.301L266.801 212.484L267.237 214.644L267.721 216.78L268.258 218.895L268.855 220.99L269.515 223.067L270.244 225.13L271.045 227.18L271.922 229.221L272.879 231.256L273.919 233.288L275.044 235.322L276.257 237.36L277.559 239.409L278.951 241.47L280.434 243.55L282.008 245.652L283.672 247.781L285.424 249.942L287.264 252.139L289.187 254.376L291.192 256.658L293.273 258.989L295.428 261.374L297.65 263.815L299.935 266.317L302.275 268.883L304.666 271.517L307.1 274.22L309.569 276.995L312.065 279.845L314.582 282.77L317.11 285.773L319.64 288.853L322.165 292.012L324.674 295.249L327.16 298.564L329.612 301.955L332.022 305.421L334.38 308.961L336.678 312.573L338.907 316.252L341.058 319.997L343.123 323.803L345.093 327.667L346.962 331.585L348.72 335.552L350.362 339.563L351.88 343.612L353.269 347.696L354.523 351.807L355.636 355.941L356.605 360.091L357.424 364.251L358.091 368.416L358.603 372.58L358.957 376.736Z" fill="#DDCCC5"/>
</svg>
