<svg width="456" height="613" viewBox="0 0 456 613" fill="none" xmlns="http://www.w3.org/2000/svg">
<path fill-rule="evenodd" clip-rule="evenodd" d="M598.77 368.656L599.292 371.675L599.619 374.701L599.752 377.73L599.689 380.756L599.432 383.772L598.983 386.774L598.346 389.755L597.523 392.712L596.521 395.639L595.345 398.531L594.003 401.384L592.501 404.195L590.849 406.959L589.055 409.674L587.128 412.337L585.079 414.945L582.918 417.499L580.655 419.994L578.299 422.432L575.861 424.812L573.351 427.133L570.778 429.395L568.153 431.6L565.483 433.747L562.777 435.839L560.043 437.876L557.287 439.86L554.517 441.792L551.738 443.674L548.956 445.508L546.174 447.294L543.397 449.035L540.63 450.732L537.877 452.389L535.141 454.006L532.425 455.586L529.734 457.131L527.07 458.643L524.437 460.126L521.837 461.581L519.275 463.012L516.753 464.422L514.274 465.814L511.842 467.191L509.459 468.557L507.129 469.915L504.854 471.27L502.637 472.625L500.481 473.984L498.388 475.352L496.359 476.732L494.397 478.129L492.503 479.547L490.678 480.99L488.924 482.462L487.24 483.968L485.628 485.51L484.086 487.093L482.614 488.72L481.21 490.394L479.874 492.118L478.603 493.895L477.395 495.727L476.247 497.616L475.156 499.564L474.119 501.571L473.13 503.638L472.187 505.766L471.285 507.954L470.418 510.201L469.582 512.507L468.771 514.869L467.98 517.286L467.203 519.754L466.433 522.27L465.667 524.832L464.896 527.434L464.116 530.072L463.321 532.742L462.505 535.438L461.662 538.155L460.788 540.887L459.876 543.627L458.923 546.37L457.922 549.108L456.871 551.836L455.765 554.546L454.601 557.233L453.375 559.888L452.085 562.506L450.728 565.08L449.302 567.605L447.807 570.073L446.241 572.479L444.604 574.818L442.895 577.085L441.115 579.276L439.265 581.385L437.347 583.41L435.361 585.348L433.31 587.196L431.196 588.952L429.022 590.614L426.79 592.183L424.505 593.657L422.168 595.038L419.785 596.326L417.358 597.523L414.89 598.63L412.387 599.651L409.851 600.588L407.286 601.443L404.695 602.222L402.082 602.927L399.45 603.561L396.802 604.128L394.141 604.633L391.469 605.08L388.79 605.472L386.105 605.815L383.416 606.113L380.726 606.37L378.036 606.589L375.348 606.776L372.662 606.931L369.979 607.059L367.301 607.162L364.627 607.242L361.958 607.301L359.295 607.342L356.638 607.37L353.987 607.386L351.343 607.395L348.704 607.398L346.072 607.4L343.445 607.402L340.824 607.408L338.207 607.419L335.594 607.439L332.985 607.468L330.377 607.508L327.771 607.56L325.165 607.626L322.558 607.706L319.949 607.8L317.337 607.908L314.722 608.031L312.101 608.167L309.473 608.317L306.839 608.479L304.196 608.653L301.545 608.838L298.883 609.032L296.21 609.234L293.526 609.443L290.83 609.656L288.12 609.874L285.397 610.093L282.66 610.313L279.909 610.532L277.142 610.747L274.361 610.959L271.564 611.164L268.751 611.362L265.923 611.55L263.078 611.729L260.218 611.895L257.341 612.048L254.448 612.186L251.539 612.309L248.614 612.414L245.674 612.502L242.717 612.57L239.744 612.618L236.756 612.644L233.752 612.648L230.733 612.629L227.699 612.586L224.65 612.518L221.586 612.424L218.508 612.303L215.416 612.155L212.31 611.978L209.19 611.773L206.058 611.539L202.912 611.274L199.754 610.978L196.584 610.65L193.402 610.29L190.208 609.898L187.004 609.472L183.788 609.011L180.563 608.517L177.328 607.987L174.084 607.422L170.83 606.821L167.568 606.183L164.298 605.508L161.02 604.796L157.735 604.047L154.443 603.259L151.145 602.434L147.84 601.57L144.53 600.667L141.214 599.725L137.893 598.744L134.567 597.724L131.237 596.664L127.903 595.564L124.565 594.423L121.224 593.243L117.881 592.022L114.535 590.759L111.189 589.454L107.843 588.107L104.498 586.716L101.155 585.28L97.8171 583.798L94.4856 582.269L91.1631 580.69L87.8522 579.06L84.5564 577.378L81.2791 575.639L78.0239 573.844L74.7944 571.99L71.594 570.076L68.4262 568.1L65.2946 566.061L62.2025 563.959L59.1532 561.792L56.15 559.561L53.1963 557.265L50.295 554.904L47.4495 552.477L44.6625 549.986L41.9372 547.431L39.2765 544.812L36.6831 542.129L34.1598 539.384L31.7092 536.577L29.334 533.71L27.0367 530.784L24.8197 527.8L22.6854 524.76L20.636 521.664L18.6737 518.515L16.8006 515.314L15.0187 512.064L13.3298 508.765L11.7357 505.421L10.2382 502.033L8.8386 498.603L7.53845 495.133L6.339 491.627L5.24137 488.085L4.24656 484.512L3.35539 480.908L2.56852 477.278L1.88646 473.622L1.30953 469.945L0.837857 466.249L0.471405 462.535L0.209932 458.809L0.0530069 455.071L0 451.325L0.0500842 447.573L0.202235 443.819L0.455231 440.064L0.807661 436.313L1.25792 432.566L1.80423 428.828L2.44464 425.1L3.17703 421.386L3.99913 417.687L4.90854 414.005L5.90273 410.344L6.97909 406.705L8.13489 403.091L9.36737 399.502L10.6737 395.942L12.051 392.412L13.4966 388.913L15.0075 385.447L16.581 382.015L18.2144 378.619L19.9052 375.26L21.6509 371.938L23.4491 368.656L25.2977 365.413L27.1947 362.211L29.1384 359.05L31.127 355.932L33.1592 352.856L35.2339 349.824L37.35 346.835L39.5068 343.892L41.7036 340.994L43.9399 338.142L46.2154 335.337L48.5299 332.579L50.8829 329.87L53.2743 327.209L55.7037 324.598L58.1704 322.037L60.6737 319.527L63.2122 317.069L65.7842 314.662L68.3879 312.308L71.021 310.006L73.6814 307.756L76.3669 305.559L79.075 303.415L81.8031 301.323L84.5485 299.282L87.3079 297.294L90.0779 295.355L92.8546 293.466L95.6336 291.625L98.4105 289.831L101.181 288.081L103.94 286.374L106.685 284.707L109.409 283.079L112.109 281.485L114.782 279.925L117.422 278.394L120.027 276.89L122.592 275.41L125.115 273.951L127.593 272.51L130.023 271.083L132.402 269.667L134.729 268.259L137.003 266.857L139.221 265.456L141.382 264.054L143.487 262.648L145.535 261.235L147.524 259.813L149.457 258.378L151.332 256.929L153.151 255.462L154.915 253.976L156.624 252.468L158.281 250.936L159.886 249.38L161.441 247.796L162.948 246.183L164.409 244.54L165.826 242.865L167.201 241.158L168.537 239.417L169.836 237.642L171.1 235.83L172.331 233.983L173.532 232.099L174.705 230.177L175.854 228.217L176.979 226.219L178.084 224.182L179.17 222.106L180.241 219.99L181.298 217.835L182.344 215.64L183.381 213.404L184.41 211.128L185.434 208.812L186.455 206.455L187.475 204.057L188.496 201.618L189.519 199.137L190.546 196.615L191.579 194.05L192.621 191.444L193.671 188.795L194.733 186.104L195.808 183.369L196.898 180.592L198.004 177.772L199.127 174.909L200.271 172.002L201.436 169.053L202.624 166.061L203.837 163.026L205.078 159.949L206.347 156.831L207.646 153.671L208.979 150.473L210.346 147.235L211.75 143.96L213.193 140.649L214.677 137.304L216.203 133.927L217.775 130.519L219.394 127.084L221.062 123.624L222.782 120.142L224.554 116.639L226.381 113.121L228.265 109.589L230.207 106.047L232.209 102.498L234.272 98.9446L236.398 95.3906L238.587 91.8393L240.84 88.294L243.159 84.7581L245.544 81.2353L247.996 77.729L250.516 74.2434L253.104 70.7825L255.76 67.3511L258.486 63.9541L261.281 60.5973L264.146 57.2864L267.08 54.027L270.084 50.8245L273.156 47.6839L276.295 44.6099L279.501 41.6071L282.772 38.6797L286.108 35.8318L289.505 33.0675L292.964 30.3905L296.48 27.8045L300.054 25.313L303.682 22.9195L307.363 20.6274L311.093 18.4398L314.871 16.3601L318.693 14.3914L322.558 12.5365L326.462 10.7986L330.402 9.18038L334.375 7.68472L338.378 6.31427L342.408 5.07163L346.461 3.95925L350.535 2.9795L354.624 2.13459L358.727 1.42661L362.838 0.857482L366.955 0.428979L371.074 0.142685L375.189 0L379.299 0.00212013L383.398 0.150029L387.483 0.444487L391.55 0.886018L395.595 1.4749L399.613 2.21116L403.601 3.09456L407.555 4.1246L411.47 5.3005L415.344 6.62122L419.172 8.08542L422.951 9.69151L426.677 11.4376L430.347 13.3215L433.958 15.3409L437.505 17.4931L440.987 19.7751L444.4 22.1838L447.742 24.7159L451.01 27.3677L454.201 30.1354L457.314 33.0153L460.347 36.0031L463.298 39.0946L466.164 42.2856L468.945 45.5716L471.64 48.9482L474.247 52.4109L476.765 55.9552L479.193 59.5765L481.531 63.2705L483.779 67.0327L485.935 70.8589L487.999 74.7447L489.972 78.6863L491.852 82.6795L493.64 86.7205L495.336 90.8057L496.939 94.9317L498.45 99.095L499.868 103.292L501.193 107.521L502.426 111.778L503.566 116.06L504.612 120.365L505.566 124.69L506.427 129.032L507.196 133.39L507.872 137.759L508.456 142.138L508.949 146.524L509.351 150.913L509.665 155.301L509.891 159.686L510.033 164.063L510.092 168.427L510.073 172.775L509.977 177.102L509.81 181.404L509.575 185.674L509.278 189.91L508.925 194.104L508.52 198.253L508.073 202.349L507.59 206.387L507.081 210.361L506.552 214.266L506.015 218.097L505.476 221.849L504.945 225.518L504.43 229.1L503.941 232.593L503.485 235.994L503.072 239.301L502.709 242.513L502.404 245.628L502.166 248.646L502.001 251.567L501.917 254.391L501.921 257.121L502.019 259.756L502.218 262.3L502.521 264.754L502.936 267.122L503.465 269.407L504.113 271.612L504.884 273.743L505.779 275.803L506.801 277.797L507.952 279.731L509.231 281.609L510.639 283.437L512.175 285.222L513.839 286.969L515.626 288.684L517.536 290.374L519.563 292.045L521.705 293.702L523.955 295.353L526.309 297.004L528.76 298.66L531.3 300.327L533.923 302.013L536.62 303.721L539.383 305.457L542.201 307.227L545.065 309.035L547.965 310.886L550.891 312.783L553.831 314.731L556.773 316.732L559.707 318.789L562.621 320.904L565.502 323.08L568.339 325.318L571.12 327.618L573.833 329.981L576.466 332.406L579.007 334.894L581.447 337.441L583.772 340.048L585.974 342.712L588.042 345.429L589.966 348.197L591.738 351.013L593.35 353.872L594.794 356.77L596.063 359.702L597.152 362.664L598.055 365.65L598.77 368.656Z" fill="#F4F1EB"/>
</svg>
