<svg width="293" height="354" viewBox="0 0 293 354" fill="none" xmlns="http://www.w3.org/2000/svg">
<path fill-rule="evenodd" clip-rule="evenodd" d="M371.791 155.781L372.934 158.279L374.047 160.802L375.128 163.35L376.176 165.922L377.188 168.518L378.164 171.137L379.103 173.779L380.001 176.442L380.859 179.127L381.675 181.831L382.447 184.555L383.173 187.298L383.854 190.058L384.487 192.835L385.071 195.627L385.605 198.433L386.088 201.253L386.519 204.084L386.896 206.927L387.22 209.779L387.489 212.64L387.702 215.508L387.859 218.381L387.958 221.26L388 224.141L387.983 227.024L387.908 229.908L387.773 232.791L387.579 235.671L387.325 238.548L387.01 241.42L386.635 244.285L386.199 247.142L385.702 249.99L385.145 252.826L384.526 255.651L383.846 258.461L383.105 261.257L382.303 264.035L381.439 266.795L380.515 269.536L379.529 272.254L378.483 274.95L377.376 277.622L376.207 280.267L374.978 282.884L373.689 285.472L372.338 288.028L370.927 290.551L369.457 293.04L367.926 295.493L366.336 297.907L364.687 300.282L362.981 302.616L361.217 304.908L359.397 307.156L357.521 309.358L355.591 311.514L353.608 313.622L351.572 315.682L349.486 317.691L347.35 319.648L345.166 321.554L342.935 323.407L340.659 325.205L338.34 326.949L335.978 328.638L333.576 330.271L331.136 331.847L328.659 333.367L326.146 334.83L323.601 336.235L321.025 337.583L318.419 338.874L315.785 340.107L313.126 341.283L310.443 342.401L307.739 343.463L305.015 344.468L302.272 345.418L299.514 346.312L296.742 347.151L293.958 347.936L291.163 348.668L288.359 349.347L285.549 349.975L282.734 350.552L279.915 351.08L277.095 351.559L274.274 351.991L271.455 352.377L268.64 352.719L265.828 353.016L263.023 353.272L260.225 353.487L257.435 353.663L254.655 353.8L251.886 353.902L249.129 353.968L246.385 354L243.654 354L240.938 353.967L238.236 353.905L235.55 353.812L232.88 353.691L230.227 353.542L227.59 353.366L224.97 353.163L222.367 352.933L219.782 352.679L217.215 352.399L214.666 352.095L212.134 351.766L209.621 351.414L207.126 351.037L204.649 350.638L202.191 350.215L199.751 349.769L197.33 349.301L194.927 348.809L192.543 348.296L190.177 347.76L187.831 347.202L185.504 346.622L183.195 346.02L180.906 345.397L178.636 344.752L176.385 344.086L174.154 343.399L171.942 342.692L169.75 341.965L167.578 341.218L165.426 340.452L163.293 339.666L161.181 338.863L159.089 338.042L157.018 337.204L154.967 336.35L152.936 335.48L150.925 334.596L148.935 333.698L146.966 332.787L145.016 331.865L143.087 330.932L141.178 329.989L139.289 329.037L137.419 328.077L135.569 327.111L133.738 326.137L131.926 325.159L130.133 324.176L128.358 323.189L126.6 322.199L124.86 321.206L123.138 320.212L121.432 319.216L119.742 318.22L118.068 317.223L116.41 316.227L114.767 315.231L113.138 314.236L111.523 313.242L109.922 312.25L108.334 311.259L106.759 310.271L105.197 309.284L103.646 308.299L102.107 307.316L100.579 306.335L99.0611 305.356L97.5541 304.379L96.0572 303.403L94.57 302.429L93.0922 301.456L91.6235 300.484L90.1637 299.512L88.7126 298.541L87.27 297.57L85.8355 296.598L84.4091 295.626L82.9907 294.653L81.58 293.679L80.177 292.703L78.7816 291.724L77.3938 290.743L76.0134 289.76L74.6404 288.773L73.2748 287.782L71.9166 286.787L70.5658 285.788L69.2224 284.785L67.8863 283.776L66.5576 282.763L65.2364 281.744L63.9227 280.719L62.6167 279.687L61.3184 278.65L60.0279 277.605L58.7453 276.554L57.4709 275.495L56.2048 274.428L54.947 273.354L53.6978 272.271L52.4573 271.18L51.2257 270.08L50.003 268.972L48.7893 267.855L47.585 266.73L46.3899 265.595L45.2042 264.451L44.028 263.298L42.8614 262.136L41.7044 260.965L40.557 259.784L39.4194 258.595L38.2914 257.397L37.1732 256.189L36.0646 254.973L34.9659 253.747L33.8768 252.513L32.7975 251.27L31.7279 250.018L30.6682 248.758L29.6182 247.488L28.5781 246.21L27.548 244.923L26.528 243.627L25.5182 242.322L24.5188 241.008L23.5301 239.686L22.5524 238.354L21.5861 237.012L20.6316 235.661L19.6894 234.3L18.7602 232.929L17.8446 231.548L16.9434 230.157L16.0574 228.754L15.1874 227.341L14.3341 225.916L13.4984 224.481L12.6809 223.034L11.8826 221.576L11.1041 220.106L10.3462 218.625L9.6097 217.133L8.89533 215.63L8.20384 214.116L7.53593 212.591L6.89232 211.056L6.2737 209.51L5.68074 207.954L5.1141 206.388L4.57441 204.813L4.06228 203.229L3.5783 201.636L3.12303 200.035L2.697 198.426L2.30072 196.81L1.93464 195.186L1.59922 193.557L1.29485 191.922L1.0219 190.281L0.780704 188.637L0.571541 186.988L0.394661 185.335L0.250267 183.68L0.138517 182.023L0.0595211 180.365L0.0133442 178.706L0 177.046L0.019452 175.388L0.0716115 173.73L0.156337 172.075L0.273432 170.423L0.422647 168.773L0.603674 167.128L0.816149 165.488L1.05965 163.853L1.33371 162.224L1.63777 160.602L1.97126 158.987L2.33353 157.379L2.72385 155.781L3.14147 154.191L3.58557 152.61L4.05528 151.04L4.54969 149.48L5.06782 147.93L5.60867 146.392L6.17121 144.865L6.75433 143.349L7.35692 141.846L7.9778 140.354L8.61577 138.875L9.26961 137.408L9.93804 135.953L10.6198 134.51L11.3135 133.08L12.0178 131.661L12.7315 130.254L13.4531 128.859L14.1813 127.475L14.9148 126.101L15.652 124.738L16.3918 123.385L17.1328 122.041L17.8737 120.706L18.6132 119.378L19.35 118.058L20.0831 116.744L20.8111 115.436L21.5331 114.133L22.248 112.834L22.9548 111.538L23.6526 110.244L24.3407 108.951L25.0183 107.658L25.6847 106.365L26.3395 105.069L26.9822 103.771L27.6124 102.469L28.23 101.163L28.8349 99.8501L29.427 98.531L30.0065 97.2045L30.5736 95.8698L31.1288 94.526L31.6726 93.1726L32.2057 91.8089L32.7287 90.4344L33.2426 89.0486L33.7484 87.6513L34.2471 86.2421L34.7397 84.8208L35.2274 83.3872L35.7113 81.9413L36.1928 80.4831L36.6731 79.0127L37.1535 77.5302L37.6354 76.036L38.1202 74.5303L38.6093 73.0137L39.1042 71.4866L39.6064 69.9496L40.1171 68.4035L40.6381 66.849L41.1706 65.287L41.7161 63.7184L42.2762 62.1443L42.8521 60.5657L43.4452 58.9838L44.0569 57.3998L44.6886 55.8151L45.3413 54.2309L46.0164 52.6487L46.715 51.07L47.4382 49.4961L48.187 47.9288L48.9623 46.3694L49.7649 44.8196L50.5958 43.2811L51.4555 41.7553L52.3448 40.244L53.264 38.7487L54.2138 37.271L55.1944 35.8125L56.2061 34.3747L57.249 32.9592L58.3232 31.5674L59.4287 30.2007L60.5653 28.8606L61.7329 27.5482L62.9312 26.2649L64.1597 25.0117L65.418 23.7898L66.7055 22.6001L68.0216 21.4435L69.3655 20.3208L70.7365 19.2326L72.1337 18.1795L73.5562 17.162L75.0032 16.1804L76.4735 15.2352L77.9663 14.3266L79.4806 13.4548L81.0153 12.6199L82.5693 11.822L84.1416 11.0609L85.7311 10.3365L87.3368 9.64862L88.9575 8.99686L90.5921 8.38081L92.2395 7.79991L93.8987 7.25355L95.5685 6.74099L97.2479 6.26143L98.9359 5.81395L100.631 5.39755L102.333 5.01116L104.041 4.65362L105.754 4.32371L107.47 4.02013L109.189 3.74153L110.911 3.4865L112.634 3.2536L114.358 3.04134L116.083 2.84821L117.808 2.67269L119.532 2.51325L121.255 2.36836L122.977 2.23651L124.698 2.11621L126.417 2.00603L128.135 1.90457L129.851 1.81049L131.566 1.72253L133.279 1.63952L134.991 1.56038L136.702 1.48414L138.412 1.40995L140.122 1.33709L141.832 1.26497L143.543 1.19319L145.254 1.12147L146.966 1.0497L148.679 0.97785L150.395 0.905963L152.113 0.83413L153.834 0.762504L155.559 0.691303L157.287 0.620803L159.019 0.551342L160.755 0.483319L162.496 0.41719L164.242 0.353472L165.994 0.292737L167.751 0.235615L169.514 0.182783L171.283 0.134975L173.058 0.0929675L174.839 0.0575838L176.627 0.029688L178.422 0.0101816L180.222 0L182.03 0.000108297L183.843 0.0114969L185.663 0.0351774L187.489 0.0721774L189.321 0.123536L191.158 0.1903L193 0.273516L194.848 0.37423L196.699 0.493476L198.555 0.632278L200.415 0.791639L202.277 0.97254L204.142 1.17593L206.008 1.40274L207.876 1.65383L209.744 1.93005L211.612 2.23219L213.48 2.561L215.345 2.91714L217.209 3.30126L219.07 3.71392L220.926 4.15561L222.779 4.62677L224.626 5.12776L226.467 5.65888L228.301 6.22034L230.129 6.81228L231.948 7.43477L233.758 8.08781L235.56 8.77131L237.351 9.48513L239.132 10.2291L240.903 11.0029L242.662 11.8063L244.409 12.639L246.144 13.5007L247.866 14.391L249.575 15.3094L251.271 16.2556L252.953 17.229L254.621 18.2291L256.275 19.2553L257.914 20.307L259.54 21.3837L261.15 22.4845L262.747 23.6089L264.329 24.7561L265.897 25.9253L267.451 27.1159L268.991 28.327L270.517 29.5579L272.03 30.8077L273.531 32.0756L275.02 33.361L276.496 34.6629L277.962 35.9807L279.417 37.3135L280.862 38.6607L282.298 40.0215L283.726 41.3952L285.146 42.7813L286.559 44.1791L287.966 45.588L289.368 47.0077L290.766 48.4376L292.16 49.8773L293.551 51.3265L294.94 52.7851L296.327 54.2527L297.714 55.7292L299.101 57.2146L300.489 58.709L301.877 60.2124L303.267 61.725L304.659 63.247L306.053 64.7787L307.45 66.3204L308.849 67.8726L310.251 69.4354L311.655 71.0094L313.063 72.5947L314.475 74.192L315.889 75.8015L317.308 77.4237L318.73 79.059L320.155 80.7079L321.585 82.3709L323.018 84.0484L324.454 85.741L325.894 87.4492L327.338 89.1734L328.785 90.9142L330.234 92.6722L331.687 94.4479L333.141 96.2418L334.598 98.0545L336.056 99.8865L337.515 101.738L338.975 103.611L340.434 105.504L341.893 107.419L343.35 109.356L344.805 111.315L346.257 113.298L347.704 115.304L349.147 117.333L350.584 119.388L352.015 121.467L353.437 123.571L354.85 125.7L356.252 127.855L357.643 130.037L359.022 132.244L360.386 134.478L361.734 136.739L363.066 139.026L364.379 141.34L365.672 143.681L366.944 146.048L368.194 148.442L369.419 150.862L370.619 153.308L371.791 155.781Z" fill="#C0A89C"/>
</svg>
