<svg width="523" height="558" viewBox="0 0 523 558" fill="none" xmlns="http://www.w3.org/2000/svg">
<path fill-rule="evenodd" clip-rule="evenodd" d="M515.526 205.174L516.067 208.217L516.591 211.273L517.096 214.343L517.583 217.425L518.051 220.521L518.5 223.631L518.929 226.755L519.338 229.893L519.725 233.045L520.091 236.211L520.435 239.392L520.756 242.587L521.054 245.796L521.327 249.02L521.576 252.258L521.798 255.51L521.995 258.776L522.164 262.057L522.305 265.351L522.417 268.659L522.5 271.981L522.553 275.316L522.574 278.664L522.563 282.025L522.52 285.399L522.443 288.784L522.331 292.181L522.185 295.589L522.002 299.008L521.782 302.438L521.525 305.877L521.229 309.326L520.894 312.783L520.519 316.249L520.103 319.722L519.646 323.202L519.147 326.688L518.605 330.179L518.019 333.676L517.39 337.176L516.715 340.68L515.996 344.186L515.23 347.694L514.418 351.203L513.559 354.712L512.653 358.22L511.698 361.727L510.696 365.23L509.644 368.731L508.544 372.227L507.394 375.718L506.194 379.203L504.944 382.68L503.644 386.15L502.293 389.611L500.892 393.061L499.439 396.501L497.936 399.929L496.381 403.344L494.775 406.746L493.118 410.132L491.41 413.503L489.65 416.858L487.839 420.194L485.977 423.512L484.064 426.811L482.099 430.089L480.084 433.345L478.018 436.579L475.901 439.79L473.733 442.976L471.516 446.137L469.248 449.271L466.93 452.377L464.563 455.456L462.147 458.504L459.681 461.523L457.167 464.51L454.605 467.464L451.995 470.385L449.337 473.272L446.631 476.123L443.879 478.937L441.081 481.714L438.236 484.452L435.346 487.15L432.411 489.808L429.432 492.424L426.408 494.997L423.341 497.526L420.232 500.01L417.081 502.45L413.889 504.843L410.656 507.189L407.384 509.488L404.073 511.738L400.724 513.939L397.339 516.091L393.917 518.192L390.46 520.243L386.968 522.243L383.443 524.191L379.886 526.087L376.297 527.931L372.678 529.722L369.029 531.459L365.351 533.143L361.645 534.772L357.913 536.348L354.154 537.868L350.371 539.334L346.564 540.744L342.733 542.098L338.881 543.397L335.007 544.639L331.113 545.825L327.2 546.955L323.268 548.027L319.319 549.042L315.354 549.999L311.373 550.899L307.378 551.74L303.369 552.524L299.347 553.249L295.314 553.915L291.27 554.522L287.216 555.07L283.154 555.559L279.083 555.988L275.006 556.357L270.923 556.666L266.835 556.915L262.743 557.104L258.649 557.232L254.552 557.299L250.455 557.305L246.358 557.25L242.262 557.133L238.168 556.955L234.077 556.716L229.991 556.415L225.91 556.052L221.836 555.627L217.769 555.14L213.711 554.591L209.663 553.98L205.625 553.308L201.6 552.573L197.587 551.777L193.588 550.919L189.605 549.999L185.637 549.018L181.688 547.976L177.756 546.873L173.844 545.709L169.952 544.485L166.083 543.201L162.235 541.858L158.412 540.456L154.613 538.994L150.84 537.475L147.094 535.897L143.375 534.263L139.685 532.571L136.025 530.824L132.396 529.021L128.798 527.164L125.233 525.252L121.701 523.286L118.203 521.268L114.74 519.197L111.314 517.075L107.924 514.902L104.572 512.68L101.258 510.408L97.9836 508.088L94.7491 505.72L91.5553 503.306L88.4031 500.845L85.2931 498.34L82.2261 495.79L79.2028 493.196L76.2242 490.559L73.2908 487.88L70.4036 485.159L67.5632 482.397L64.7704 479.595L62.026 476.754L59.3309 473.873L56.6857 470.955L54.0913 468L51.5485 465.007L49.058 461.979L46.6207 458.916L44.2374 455.818L41.9088 452.686L39.6358 449.522L37.4191 446.325L35.2596 443.097L33.158 439.838L31.1151 436.55L29.1317 433.233L27.2085 429.888L25.3463 426.516L23.5458 423.118L21.8077 419.694L20.1327 416.247L18.5215 412.776L16.9747 409.283L15.4929 405.769L14.0768 402.235L12.7268 398.682L11.4435 395.112L10.2273 391.525L9.07867 387.923L7.99797 384.306L6.98552 380.678L6.04158 377.037L5.16635 373.387L4.35999 369.728L3.62256 366.062L2.95406 362.39L2.35442 358.714L1.8235 355.035L1.36107 351.354L0.966794 347.674L0.640284 343.995L0.381038 340.319L0.188465 336.649L0.0618751 332.984L0.000488281 329.327L0.0034607 325.68L0.0698984 322.044L0.198858 318.42L0.38935 314.809L0.640336 311.214L0.950736 307.636L1.31942 304.075L1.74523 300.534L2.22696 297.013L2.76335 293.514L3.35314 290.038L3.995 286.585L4.68758 283.158L5.42951 279.757L6.21938 276.383L7.05575 273.036L7.93716 269.719L8.86212 266.432L9.82914 263.175L10.8367 259.949L11.8832 256.755L12.9672 253.594L14.0871 250.466L15.2412 247.371L16.4281 244.311L17.646 241.285L18.8936 238.294L20.169 235.338L21.4709 232.418L22.7974 229.533L24.1472 226.684L25.5187 223.87L26.9102 221.093L28.3202 218.351L29.7472 215.645L31.1898 212.974L32.6465 210.339L34.1159 207.739L35.5969 205.174L37.0881 202.644L38.5886 200.148L40.0974 197.685L41.6134 195.256L43.1358 192.861L44.6638 190.497L46.1966 188.166L47.7337 185.867L49.2744 183.599L50.8181 181.361L52.3644 179.154L53.9129 176.976L55.4631 174.828L57.0148 172.708L58.5677 170.617L60.1215 168.553L61.676 166.517L63.2312 164.508L64.7868 162.525L66.3428 160.568L67.899 158.636L69.4556 156.73L71.0124 154.849L72.5694 152.992L74.1267 151.158L75.6842 149.349L77.2422 147.563L78.8005 145.8L80.3592 144.059L81.9184 142.341L83.4782 140.645L85.0386 138.97L86.5996 137.317L88.1614 135.685L89.7239 134.074L91.2872 132.484L92.8513 130.914L94.4163 129.364L95.982 127.834L97.5486 126.324L99.1159 124.833L100.684 123.361L102.253 121.908L103.822 120.473L105.391 119.056L106.961 117.657L108.531 116.276L110.101 114.911L111.671 113.564L113.241 112.232L114.81 110.917L116.377 109.616L117.944 108.331L119.51 107.06L121.074 105.804L122.637 104.56L124.198 103.33L125.757 102.113L127.314 100.908L128.87 99.7141L130.423 98.532L131.975 97.3607L133.524 96.1999L135.071 95.0492L136.617 93.9081L138.161 92.7763L139.703 91.6533L141.243 90.5389L142.782 89.4325L144.319 88.334L145.855 87.2429L147.39 86.159L148.925 85.082L150.458 84.0115L151.992 82.9473L153.525 81.8892L155.058 80.837L156.592 79.7904L158.126 78.7492L159.661 77.7132L161.197 76.6824L162.735 75.6565L164.275 74.6354L165.817 73.619L167.362 72.6073L168.909 71.6001L170.459 70.5973L172.013 69.5988L173.571 68.6046L175.132 67.6145L176.698 66.6283L178.268 65.6458L179.843 64.6667L181.423 63.6908L183.008 62.7179L184.598 61.7477L186.194 60.7797L187.796 59.8137L189.404 58.8493L191.018 57.8862L192.639 56.924L194.267 55.9622L195.901 55.0005L197.543 54.0384L199.193 53.0756L200.85 52.1116L202.516 51.1461L204.191 50.1786L205.875 49.2087L207.568 48.2361L209.271 47.2605L210.985 46.2814L212.709 45.2986L214.445 44.3118L216.192 43.3207L217.952 42.3253L219.725 41.3251L221.511 40.3203L223.312 39.3106L225.127 38.2961L226.958 37.2768L228.804 36.2527L230.667 35.2241L232.548 34.1912L234.446 33.1542L236.363 32.1135L238.299 31.0695L240.255 30.0227L242.231 28.9738L244.229 27.9235L246.248 26.8723L248.289 25.8213L250.353 24.7713L252.441 23.7234L254.552 22.6786L256.688 21.6381L258.848 20.6033L261.033 19.5755L263.244 18.5562L265.48 17.5469L267.742 16.5493L270.03 15.5649L272.344 14.5956L274.683 13.643L277.048 12.7088L279.439 11.7947L281.855 10.9024L284.297 10.0337L286.763 9.19028L289.253 8.37376L291.768 7.58584L294.306 6.8282L296.866 6.10244L299.449 5.41017L302.053 4.75296L304.678 4.13232L307.322 3.54976L309.985 3.00671L312.667 2.50457L315.365 2.04468L318.08 1.62833L320.809 1.25676L323.552 0.931139L326.308 0.652581L329.076 0.422133L331.854 0.240774L334.641 0.109416L337.436 0.0289016L340.238 0L343.046 0.023409L345.857 0.0997524L348.672 0.22958L351.488 0.413366L354.305 0.65151L357.12 0.944338L359.934 1.2921L362.744 1.69498L365.55 2.15314L368.349 2.66669L371.141 3.23573L373.925 3.86033L376.699 4.54049L379.462 5.27621L382.213 6.06743L384.95 6.91404L387.672 7.81592L390.378 8.77285L393.067 9.78462L395.736 10.8509L398.386 11.9714L401.015 13.1457L403.622 14.3735L406.206 15.654L408.765 16.987L411.298 18.3717L413.805 19.8076L416.285 21.2939L418.736 22.8299L421.158 24.4148L423.549 26.0479L425.91 27.7282L428.239 29.4549L430.535 31.2269L432.799 33.0434L435.029 34.9033L437.225 36.8055L439.386 38.7491L441.512 40.7328L443.604 42.7557L445.659 44.8165L447.679 46.9141L449.663 49.0474L451.611 51.2152L453.523 53.4163L455.399 55.6496L457.239 57.914L459.043 60.2081L460.812 62.531L462.545 64.8815L464.243 67.2585L465.906 69.6608L467.536 72.0875L469.131 74.5375L470.692 77.0098L472.22 79.5034L473.716 82.0174L475.18 84.5509L476.612 87.103L478.013 89.6729L479.384 92.2598L480.724 94.8629L482.035 97.4817L483.317 100.115L484.571 102.763L485.797 105.425L486.996 108.1L488.169 110.787L489.316 113.486L490.438 116.197L491.535 118.92L492.609 121.653L493.659 124.396L494.686 127.15L495.692 129.914L496.676 132.687L497.64 135.47L498.583 138.262L499.507 141.064L500.411 143.875L501.297 146.695L502.164 149.524L503.014 152.362L503.846 155.21L504.662 158.066L505.46 160.932L506.242 163.808L507.008 166.693L507.758 169.588L508.492 172.494L509.211 175.409L509.914 178.335L510.601 181.271L511.273 184.218L511.929 187.177L512.569 190.147L513.193 193.128L513.801 196.121L514.393 199.126L514.968 202.144L515.526 205.174Z" fill="#F4F1EB"/>
</svg>
