<svg width="449" height="350" viewBox="0 0 449 350" fill="none" xmlns="http://www.w3.org/2000/svg">
<path fill-rule="evenodd" clip-rule="evenodd" d="M306.778 322.983L303.497 323.403L300.236 323.792L296.999 324.152L293.786 324.487L290.596 324.799L287.432 325.093L284.294 325.37L281.181 325.634L278.094 325.888L275.033 326.135L271.998 326.379L268.988 326.621L266.003 326.865L263.043 327.114L260.106 327.37L257.191 327.635L254.297 327.913L251.424 328.204L248.569 328.511L245.731 328.835L242.908 329.179L240.099 329.542L237.302 329.927L234.514 330.333L231.735 330.762L228.961 331.214L226.191 331.688L223.422 332.185L220.654 332.704L217.883 333.244L215.107 333.805L212.325 334.386L209.535 334.985L206.734 335.601L203.922 336.233L201.095 336.879L198.253 337.536L195.394 338.204L192.517 338.881L189.619 339.564L186.701 340.25L183.76 340.938L180.796 341.623L177.807 342.303L174.794 342.975L171.756 343.635L168.692 344.278L165.603 344.902L162.488 345.501L159.348 346.071L156.184 346.609L152.997 347.109L149.788 347.567L146.557 347.979L143.308 348.34L140.041 348.646L136.758 348.892L133.463 349.074L130.157 349.187L126.844 349.228L123.526 349.192L120.206 349.077L116.887 348.878L113.574 348.591L110.27 348.216L106.977 347.747L103.701 347.183L100.445 346.522L97.2127 345.762L94.0081 344.901L90.8352 343.939L87.6978 342.874L84.5998 341.706L81.545 340.435L78.5371 339.061L75.5797 337.585L72.6762 336.008L69.8298 334.33L67.0436 332.555L64.3206 330.683L61.6632 328.718L59.0738 326.662L56.5546 324.517L54.1071 322.288L51.7331 319.978L49.4335 317.59L47.2093 315.13L45.0609 312.6L42.9887 310.005L40.9923 307.35L39.0715 304.639L37.2254 301.877L35.453 299.069L33.7529 296.218L32.1236 293.331L30.5631 290.41L29.0694 287.462L27.64 284.489L26.2727 281.496L24.9645 278.487L23.7129 275.467L22.5148 272.438L21.3674 269.403L20.2676 266.367L19.2126 263.331L18.1993 260.298L17.2249 257.271L16.2867 254.251L15.3821 251.239L14.5088 248.238L13.6646 245.249L12.8476 242.271L12.0563 239.306L11.2895 236.353L10.5462 233.413L9.8258 230.485L9.12778 227.569L8.45178 224.664L7.79771 221.77L7.16567 218.887L6.55589 216.014L5.96882 213.15L5.40508 210.294L4.8655 207.446L4.35103 204.605L3.86284 201.771L3.40224 198.943L2.97062 196.119L2.56958 193.301L2.20074 190.486L1.86595 187.676L1.567 184.869L1.30581 182.066L1.08439 179.266L0.904667 176.47L0.768729 173.677L0.678459 170.888L0.635894 168.103L0.642931 165.323L0.701362 162.549L0.812996 159.78L0.979439 157.019L1.20227 154.266L1.48281 151.522L1.82236 148.789L2.22187 146.067L2.68236 143.358L3.20437 140.664L3.78844 137.985L4.4348 135.324L5.14352 132.682L5.91432 130.06L6.74681 127.461L7.64035 124.885L8.59406 122.334L9.607 119.81L10.6781 117.314L11.8059 114.848L12.989 112.412L14.2258 110.008L15.5145 107.638L16.8531 105.302L18.2395 103.002L19.6714 100.737L21.1465 98.5097L22.6622 96.3198L24.2159 94.1679L25.8049 92.0543L27.4263 89.9794L29.0773 87.943L30.755 85.9453L32.4564 83.9858L34.1786 82.0642L35.9187 80.1801L37.6736 78.3327L39.4407 76.5213L41.217 74.7449L43 73.0025L44.787 71.2931L46.5757 69.6153L48.3637 67.968L50.1488 66.3497L51.9293 64.759L53.7033 63.1947L55.4693 61.6551L57.2259 60.1389L58.9721 58.6447L60.7071 57.1712L62.4301 55.7171L64.1409 54.2811L65.8393 52.8622L67.5252 51.4595L69.1989 50.0718L70.8607 48.6984L72.5109 47.3385L74.1502 45.9915L75.7792 44.6568L77.3989 43.3339L79.0099 42.0227L80.6135 40.7228L82.2105 39.4342L83.8023 38.157L85.39 36.8914L86.9747 35.6376L88.558 34.3962L90.1409 33.1678L91.7249 31.9529L93.3112 30.7524L94.9011 29.5671L96.4958 28.3982L98.0966 27.2466L99.7045 26.1135L101.321 25.0002L102.946 23.9078L104.581 22.8378L106.228 21.7914L107.886 20.7701L109.556 19.7751L111.239 18.8077L112.934 17.8693L114.643 16.9612L116.365 16.0844L118.1 15.2401L119.849 14.4293L121.61 13.6529L123.383 12.9116L125.168 12.2061L126.965 11.5369L128.771 10.9043L130.588 10.3085L132.413 9.74959L134.246 9.22763L136.086 8.7426L137.932 8.29442L139.783 7.88289L141.638 7.50774L143.496 7.16857L145.357 6.86487L147.218 6.59602L149.08 6.36125L150.941 6.15966L152.801 5.99025L154.658 5.85183L156.511 5.74311L158.359 5.66264L160.203 5.60888L162.04 5.58011L163.87 5.57453L165.693 5.59023L167.508 5.62518L169.314 5.67728L171.111 5.74436L172.899 5.82417L174.678 5.91446L176.447 6.01293L178.207 6.11727L179.958 6.22523L181.7 6.33456L183.434 6.4431L185.16 6.54876L186.878 6.64957L188.591 6.7437L190.297 6.82944L191.999 6.90532L193.698 6.97003L195.394 7.0225L197.089 7.06186L198.784 7.08736L200.48 7.09827L202.178 7.09396L203.881 7.07389L205.588 7.03759L207.302 6.98467L209.024 6.91486L210.755 6.828L212.497 6.72403L214.251 6.60299L216.019 6.46509L217.801 6.3106L219.6 6.13997L221.417 5.95375L223.252 5.75264L225.108 5.53746L226.985 5.30917L228.885 5.06885L230.809 4.81773L232.758 4.55715L234.732 4.2886L236.734 4.01365L238.762 3.73401L240.819 3.4515L242.904 3.16804L245.018 2.88565L247.161 2.60641L249.335 2.33252L251.538 2.06623L253.77 1.80983L256.032 1.56569L258.323 1.3362L260.644 1.12379L262.992 0.930899L265.368 0.759974L267.771 0.613459L270.199 0.493784L272.653 0.40334L275.13 0.344469L277.63 0.319373L280.151 0.330081L282.692 0.378482L285.253 0.466304L287.83 0.595131L290.425 0.76642L293.034 0.981495L295.658 1.24153L298.294 1.54762L300.942 1.90073L303.6 2.30171L306.268 2.75134L308.943 3.25028L311.626 3.79912L314.314 4.39839L317.007 5.04851L319.704 5.74988L322.404 6.50282L325.106 7.3076L327.808 8.16444L330.51 9.07356L333.211 10.0351L335.91 11.0493L338.606 12.1162L341.297 13.2359L343.983 14.4085L346.663 15.6343L349.336 16.9132L352 18.2455L354.655 19.6312L357.299 21.0706L359.93 22.5637L362.547 24.1109L365.149 25.7122L367.734 27.368L370.3 29.0785L372.844 30.8439L375.366 32.6644L377.863 34.5399L380.332 36.4705L382.774 38.456L385.185 40.4959L387.563 42.5902L389.909 44.7381L392.219 46.9393L394.494 49.193L396.73 51.4986L398.928 53.8554L401.086 56.2625L403.203 58.7192L405.279 61.2245L407.312 63.7774L409.302 66.3772L411.248 69.0226L413.149 71.7129L415.006 74.447L416.817 77.2239L418.582 80.0426L420.301 82.9021L421.974 85.8014L423.6 88.7397L425.179 91.7158L426.711 94.729L428.195 97.7782L429.632 100.863L431.02 103.981L432.36 107.133L433.651 110.318L434.893 113.534L436.085 116.781L437.227 120.058L438.318 123.364L439.358 126.698L440.345 130.06L441.28 133.448L442.161 136.862L442.987 140.301L443.757 143.763L444.47 147.247L445.123 150.753L445.716 154.279L446.247 157.825L446.713 161.387L447.113 164.966L447.445 168.558L447.707 172.164L447.896 175.78L448.011 179.405L448.05 183.037L448.009 186.673L447.888 190.311L447.684 193.949L447.394 197.583L447.018 201.213L446.553 204.834L445.998 208.443L445.351 212.038L444.611 215.616L443.775 219.174L442.845 222.708L441.817 226.215L440.692 229.692L439.47 233.135L438.15 236.543L436.731 239.91L435.215 243.234L433.602 246.513L431.892 249.742L430.087 252.919L428.187 256.042L426.195 259.106L424.112 262.111L421.941 265.053L419.682 267.929L417.339 270.739L414.915 273.48L412.412 276.151L409.832 278.748L407.179 281.272L404.456 283.72L401.665 286.092L398.811 288.386L395.896 290.602L392.924 292.739L389.898 294.796L386.821 296.774L383.699 298.673L380.533 300.492L377.327 302.232L374.086 303.894L370.812 305.478L367.51 306.986L364.182 308.417L360.833 309.774L357.465 311.059L354.082 312.272L350.688 313.415L347.285 314.491L343.876 315.501L340.466 316.448L337.055 317.334L333.648 318.161L330.246 318.932L326.853 319.65L323.469 320.316L320.099 320.935L316.743 321.508L313.403 322.039L310.081 322.529L306.778 322.983Z" fill="#DDCCC5"/>
</svg>
